<svg width="48" height="48" viewBox="0 0 48 48" fill="none" xmlns="http://www.w3.org/2000/svg">
<circle cx="24" cy="24" r="24" fill="#F0B90A"/>
<path d="M23.9999 15.7804L18.174 21.6062L14.784 18.2162L23.9999 9L33.2189 18.2193L29.8289 21.6093L23.9999 15.7804Z" fill="white"/>
<path d="M15.7799 23.9994L12.3899 20.6097L9 23.9996L12.3899 27.3896L15.7799 23.9994Z" fill="white"/>
<path d="M23.9999 32.2195L18.174 26.3938L14.779 29.7792L14.7838 29.7839L23.9999 39L33.2189 29.7809L33.2205 29.7789L29.8287 26.3909L23.9999 32.2195Z" fill="white"/>
<path d="M35.6103 27.391L39 24.001L35.6101 20.6111L32.2201 24.0013L35.6103 27.391Z" fill="white"/>
<path d="M27.4397 23.9982H27.4411L24.0013 20.5582L20.5644 24.0048L24.0013 27.4417L27.4411 24.0017L27.4429 23.9999L27.4397 23.9982Z" fill="white"/>
</svg>
