<svg width="48" height="48" viewBox="0 0 48 48" fill="none" xmlns="http://www.w3.org/2000/svg">
<path d="M47.2816 29.8059C44.0758 42.663 31.0521 50.4877 18.192 47.2815C5.33717 44.076 -2.48842 31.0531 0.718921 18.1968C3.92326 5.33814 16.9469 -2.48728 29.8033 0.71819C42.6626 3.92366 50.4875 16.948 47.2816 29.8059Z" fill="#F7931A"/>
<path d="M34.5825 20.5809C35.0603 17.3875 32.6285 15.6707 29.3034 14.5255L30.382 10.1995L27.7485 9.54329L26.6984 13.7552C26.0061 13.5827 25.295 13.42 24.5884 13.2588L25.646 9.01904L23.014 8.36279L21.9347 12.6872C21.3616 12.5567 20.799 12.4278 20.253 12.292L20.256 12.2785L16.6241 11.3718L15.9235 14.1842C15.9235 14.1842 17.8775 14.632 17.8362 14.6597C18.9028 14.926 19.0956 15.6317 19.0633 16.1912L17.8347 21.1194C17.9082 21.1382 18.0035 21.1652 18.1085 21.2072C18.0207 21.1854 17.927 21.1614 17.8302 21.1382L16.108 28.0419C15.9775 28.3659 15.6467 28.8518 14.9012 28.6673C14.9274 28.7056 12.987 28.1896 12.987 28.1896L11.6796 31.2038L15.1067 32.0581C15.7442 32.2178 16.3691 32.385 16.9841 32.5425L15.8943 36.918L18.5248 37.5743L19.6042 33.2453C20.3227 33.4403 21.0203 33.6203 21.7029 33.7898L20.6273 38.0985L23.2608 38.7547L24.3507 34.3875C28.8414 35.2373 32.2183 34.8945 33.6397 30.8333C34.785 27.5633 33.5826 25.6771 31.2199 24.4471C32.9406 24.0504 34.2367 22.9187 34.5825 20.5809ZM28.5654 29.0176C27.7515 32.2876 22.2452 30.5198 20.46 30.0766L21.9062 24.2799C23.6913 24.7254 29.4159 25.6074 28.5654 29.0176ZM29.3799 20.5337C28.6374 23.5081 24.0544 21.9969 22.5677 21.6264L23.8789 16.369C25.3655 16.7395 30.1533 17.431 29.3799 20.5337Z" fill="white"/>
</svg>
