<svg width="30" height="30" viewBox="0 0 30 30" fill="none" xmlns="http://www.w3.org/2000/svg">
<path d="M15 26.25C17.6027 26.25 20.125 25.3475 22.1369 23.6964C24.1489 22.0452 25.5261 19.7475 26.0338 17.1948C26.5416 14.642 26.1485 11.9922 24.9216 9.69679C23.6947 7.40137 21.7098 5.60238 19.3052 4.60636C16.9006 3.61033 14.225 3.47888 11.7343 4.23442C9.24363 4.98996 7.09198 6.58573 5.64597 8.74983C4.19996 10.9139 3.54906 13.5125 3.80417 16.1027C4.05928 18.6929 5.20463 21.1145 7.04505 22.9549" stroke="white" stroke-width="2" stroke-linecap="round"/>
<path d="M11.25 11.25L18.75 18.75" stroke="white" stroke-width="2" stroke-linecap="round"/>
<path d="M18.75 11.25L11.25 18.75" stroke="white" stroke-width="2" stroke-linecap="round"/>
</svg>
