<svg width="33" height="32" viewBox="0 0 33 32" fill="none" xmlns="http://www.w3.org/2000/svg">
<g clip-path="url(#clip0)">
<circle cx="16.5" cy="16" r="16" fill="#269653"/>
<path d="M21.76 20.0358C20.7847 21.3771 19.1579 22.2828 17.1004 22.2828C16.1388 22.2828 15.2634 22.1121 14.4879 21.7916L18.0034 19.7571L17.1417 18.2382L12.8095 20.7465C12.3925 20.3738 12.0306 19.9383 11.7239 19.4471L16.1457 16.8865L15.2841 15.3676L10.9932 17.8515C10.7347 17.0294 10.5968 16.1201 10.5968 15.1377C10.5968 11.1384 13.2541 8.04131 17.2348 8.04131C18.7788 8.04131 20.5951 8.644 21.5981 10.041L24.2002 7.9577C22.7113 5.93016 19.7025 5 17.2348 5C11.3275 5 6.82983 8.91572 6.82983 15.1342C6.82983 16.8203 7.16414 18.3636 7.77417 19.7153L4.5 21.6105L5.36162 23.1294L8.63924 21.2342C8.96321 21.7011 9.32509 22.1365 9.72489 22.5337L6.35766 24.4811L7.21928 26L11.1759 23.7077C12.8061 24.7772 14.8154 25.3764 17.0728 25.3764C20.3504 25.3764 22.7905 24.1432 24.5 21.9798L21.76 20.0358Z" fill="url(#paint0_linear)"/>
</g>
<defs>
<linearGradient id="paint0_linear" x1="4.49569" y1="15.499" x2="24.4956" y2="15.499" gradientUnits="userSpaceOnUse">
<stop stop-color="#FFA455"/>
<stop offset="1" stop-color="#FBB03B"/>
</linearGradient>
<clipPath id="clip0">
<rect width="32" height="32" fill="white" transform="translate(0.5)"/>
</clipPath>
</defs>
</svg>
