<svg width="30" height="30" viewBox="0 0 30 30" fill="none" xmlns="http://www.w3.org/2000/svg">
<path d="M26.9153 1.19995L16.5935 9.8202L18.5129 4.73999L26.9153 1.19995Z" fill="#E17726" stroke="#E17726" stroke-width="0.214431" stroke-linecap="round" stroke-linejoin="round"/>
<path d="M3.10669 1.19995L13.3366 9.90068L11.5091 4.74L3.10669 1.19995Z" fill="#E27625" stroke="#E27625" stroke-width="0.214431" stroke-linecap="round" stroke-linejoin="round"/>
<path d="M23.1987 21.1874L20.4524 25.9228L26.3331 27.7503L28.0177 21.2909L23.1987 21.1874Z" fill="#E27625" stroke="#E27625" stroke-width="0.214431" stroke-linecap="round" stroke-linejoin="round"/>
<path d="M2.0144 21.2909L3.68876 27.7503L9.55925 25.9228L6.82308 21.1874L2.0144 21.2909Z" fill="#E27625" stroke="#E27625" stroke-width="0.214431" stroke-linecap="round" stroke-linejoin="round"/>
<path d="M9.24263 13.1878L7.60913 15.9693L13.4285 16.2682L13.2346 9.19958L9.24263 13.1878Z" fill="#E27625" stroke="#E27625" stroke-width="0.214431" stroke-linecap="round" stroke-linejoin="round"/>
<path d="M20.7793 13.188L16.7262 9.11926L16.5935 16.2684L22.4129 15.9695L20.7793 13.188Z" fill="#E27625" stroke="#E27625" stroke-width="0.214431" stroke-linecap="round" stroke-linejoin="round"/>
<path d="M9.55908 25.9228L13.0813 24.0034L10.0492 21.3369L9.55908 25.9228Z" fill="#E27625" stroke="#E27625" stroke-width="0.214431" stroke-linecap="round" stroke-linejoin="round"/>
<path d="M16.9407 24.0034L20.4527 25.9228L19.9728 21.3369L16.9407 24.0034Z" fill="#E27625" stroke="#E27625" stroke-width="0.214431" stroke-linecap="round" stroke-linejoin="round"/>
<path d="M20.4527 25.9229L16.9407 24.0035L17.2265 26.5781L17.1958 27.67L20.4527 25.9229Z" fill="#D5BFB2" stroke="#D5BFB2" stroke-width="0.214431" stroke-linecap="round" stroke-linejoin="round"/>
<path d="M9.55908 25.9229L12.8261 27.67L12.8057 26.5781L13.0813 24.0035L9.55908 25.9229Z" fill="#D5BFB2" stroke="#D5BFB2" stroke-width="0.214431" stroke-linecap="round" stroke-linejoin="round"/>
<path d="M12.8875 19.6358L9.96753 18.6704L12.0298 17.6014L12.8875 19.6358Z" fill="#233447" stroke="#233447" stroke-width="0.214431" stroke-linecap="round" stroke-linejoin="round"/>
<path d="M17.1345 19.6358L17.9922 17.6014L20.0647 18.6704L17.1345 19.6358Z" fill="#233447" stroke="#233447" stroke-width="0.214431" stroke-linecap="round" stroke-linejoin="round"/>
<path d="M9.55913 25.9228L10.0696 21.1874L6.823 21.2909L9.55913 25.9228Z" fill="#CC6228" stroke="#CC6228" stroke-width="0.214431" stroke-linecap="round" stroke-linejoin="round"/>
<path d="M19.9524 21.1874L20.4527 25.9228L23.199 21.2909L19.9524 21.1874Z" fill="#CC6228" stroke="#CC6228" stroke-width="0.214431" stroke-linecap="round" stroke-linejoin="round"/>
<path d="M22.4129 15.9692L16.5935 16.2681L17.1346 19.6358L17.9922 17.6013L20.0647 18.6703L22.4129 15.9692Z" fill="#CC6228" stroke="#CC6228" stroke-width="0.214431" stroke-linecap="round" stroke-linejoin="round"/>
<path d="M9.96752 18.6703L12.0298 17.6013L12.8875 19.6358L13.4285 16.2681L7.60913 15.9692L9.96752 18.6703Z" fill="#CC6228" stroke="#CC6228" stroke-width="0.214431" stroke-linecap="round" stroke-linejoin="round"/>
<path d="M7.60938 15.9692L10.0495 21.3368L9.96776 18.6703L7.60938 15.9692Z" fill="#E27525" stroke="#E27525" stroke-width="0.214431" stroke-linecap="round" stroke-linejoin="round"/>
<path d="M20.0648 18.6703L19.9729 21.3368L22.413 15.9692L20.0648 18.6703Z" fill="#E27525" stroke="#E27525" stroke-width="0.214431" stroke-linecap="round" stroke-linejoin="round"/>
<path d="M13.4289 16.2681L12.8877 19.6358L13.5717 23.6125L13.7249 18.3714L13.4289 16.2681Z" fill="#E27525" stroke="#E27525" stroke-width="0.214431" stroke-linecap="round" stroke-linejoin="round"/>
<path d="M16.5935 16.2681L16.3076 18.36L16.4506 23.6125L17.1346 19.6358L16.5935 16.2681Z" fill="#E27525" stroke="#E27525" stroke-width="0.214431" stroke-linecap="round" stroke-linejoin="round"/>
<path d="M17.1347 19.6359L16.4507 23.6127L16.9408 24.0035L19.973 21.337L20.0649 18.6704L17.1347 19.6359Z" fill="#F5841F" stroke="#F5841F" stroke-width="0.214431" stroke-linecap="round" stroke-linejoin="round"/>
<path d="M9.96753 18.6704L10.0493 21.337L13.0814 24.0035L13.5715 23.6127L12.8875 19.6359L9.96753 18.6704Z" fill="#F5841F" stroke="#F5841F" stroke-width="0.214431" stroke-linecap="round" stroke-linejoin="round"/>
<path d="M17.1958 27.6699L17.2264 26.578L16.9609 26.3251H13.0609L12.8057 26.578L12.8261 27.6699L9.55908 25.9229L10.7025 26.9803L13.0201 28.7848H16.9915L19.3193 26.9803L20.4526 25.9229L17.1958 27.6699Z" fill="#C0AC9D" stroke="#C0AC9D" stroke-width="0.214431" stroke-linecap="round" stroke-linejoin="round"/>
<path d="M16.9407 24.0034L16.4507 23.6127H13.5716L13.0816 24.0034L12.8059 26.578L13.0611 26.3251H16.9612L17.2266 26.578L16.9407 24.0034Z" fill="#161616" stroke="#161616" stroke-width="0.214431" stroke-linecap="round" stroke-linejoin="round"/>
<path d="M27.3543 10.3834L28.2221 5.62504L26.9153 1.19995L16.9407 9.53292L20.7794 13.1878L26.2006 14.9694L27.3952 13.3948L26.8745 12.9695L27.7014 12.119L27.0685 11.5673L27.8954 10.8546L27.3543 10.3834Z" fill="#763E1A" stroke="#763E1A" stroke-width="0.214431" stroke-linecap="round" stroke-linejoin="round"/>
<path d="M1.80005 5.62504L2.67807 10.3834L2.11654 10.8546L2.95372 11.5673L2.32073 12.119L3.1477 12.9695L2.62702 13.3948L3.82153 14.9694L9.24279 13.1878L13.0815 9.53292L3.10687 1.19995L1.80005 5.62504Z" fill="#763E1A" stroke="#763E1A" stroke-width="0.214431" stroke-linecap="round" stroke-linejoin="round"/>
<path d="M26.2007 14.9693L20.7795 13.1879L22.413 15.9693L19.9729 21.3369L23.1991 21.2909H28.018L26.2007 14.9693Z" fill="#F5841F" stroke="#F5841F" stroke-width="0.214431" stroke-linecap="round" stroke-linejoin="round"/>
<path d="M9.24271 13.1879L3.82148 14.9693L2.0144 21.2909H6.82308L10.0492 21.3369L7.60921 15.9693L9.24271 13.1879Z" fill="#F5841F" stroke="#F5841F" stroke-width="0.214431" stroke-linecap="round" stroke-linejoin="round"/>
<path d="M16.5933 16.2682L16.9405 9.53283L18.5127 4.73999H11.509L13.0812 9.53283L13.4284 16.2682L13.5611 18.383L13.5713 23.6126H16.4504L16.4606 18.383L16.5933 16.2682Z" fill="#F5841F" stroke="#F5841F" stroke-width="0.214431" stroke-linecap="round" stroke-linejoin="round"/>
</svg>
