<svg width="56" height="59" viewBox="0 0 56 59" fill="none" xmlns="http://www.w3.org/2000/svg">
<path d="M47.985 41.9388C45.2734 45.6401 40.7508 48.1397 35.0306 48.1397C32.3573 48.1397 29.9236 47.6686 27.7677 46.7842L37.541 41.1697L35.1456 36.9781L23.1014 43.9C21.942 42.8714 20.9359 41.6697 20.0832 40.3141L32.3765 33.248L29.981 29.0564L18.0519 35.911C17.3332 33.6422 16.95 31.133 16.95 28.4219C16.95 17.3853 24.3374 8.83862 35.4043 8.83862C39.6968 8.83862 44.7464 10.5018 47.5346 14.3569L54.7688 8.6079C50.6295 3.01268 42.2647 0.445801 35.4043 0.445801C18.9813 0.445801 6.47722 11.2517 6.47722 28.4123C6.47722 33.0653 7.40663 37.3242 9.10258 41.0544L0 46.2843L2.39542 50.4759L11.5076 45.246C12.4083 46.5342 13.4143 47.7359 14.5258 48.8319L5.16452 54.206L7.55993 58.3976L18.5597 52.0717C23.0918 55.0232 28.6779 56.6768 34.9539 56.6768C44.0661 56.6768 50.8499 53.2735 55.6024 47.3033L47.985 41.9388Z" fill="url(#paint0_linear)"/>
<defs>
<linearGradient id="paint0_linear" x1="-0.0119771" y1="29.419" x2="55.59" y2="29.419" gradientUnits="userSpaceOnUse">
<stop stop-color="#FFA455"/>
<stop offset="1" stop-color="#FBB03B"/>
</linearGradient>
</defs>
</svg>
