<svg width="168" height="63" viewBox="0 0 168 63" fill="none" xmlns="http://www.w3.org/2000/svg">
<path d="M60.95 50.2V60H59.662V52.342L56.456 57.676H56.288L53.082 52.356V60H51.78V50.2H53.25L56.372 55.38L59.48 50.2H60.95ZM63.7737 57.06C63.895 57.6853 64.1797 58.1707 64.6277 58.516C65.085 58.8613 65.645 59.034 66.3077 59.034C67.2317 59.034 67.9037 58.6933 68.3237 58.012L69.3597 58.6C68.6783 59.6547 67.6517 60.182 66.2797 60.182C65.169 60.182 64.2637 59.8367 63.5637 59.146C62.873 58.446 62.5277 57.564 62.5277 56.5C62.5277 55.4453 62.8683 54.568 63.5497 53.868C64.231 53.168 65.113 52.818 66.1957 52.818C67.2223 52.818 68.0577 53.182 68.7017 53.91C69.355 54.6287 69.6817 55.4967 69.6817 56.514C69.6817 56.6913 69.6677 56.8733 69.6397 57.06H63.7737ZM66.1957 53.966C65.5423 53.966 65.001 54.1527 64.5717 54.526C64.1423 54.89 63.8763 55.38 63.7737 55.996H68.4497C68.347 55.3333 68.0857 54.8293 67.6657 54.484C67.2457 54.1387 66.7557 53.966 66.1957 53.966ZM74.6847 54.176H72.8227V57.97C72.8227 58.3153 72.888 58.5627 73.0187 58.712C73.1587 58.852 73.3687 58.9267 73.6487 58.936C73.9287 58.936 74.274 58.9267 74.6847 58.908V60C73.6207 60.14 72.8414 60.056 72.3467 59.748C71.852 59.4307 71.6047 58.838 71.6047 57.97V54.176H70.2187V53H71.6047V51.404L72.8227 51.04V53H74.6847V54.176ZM81.5672 53H82.7852V60H81.5672V58.796C80.9606 59.72 80.0786 60.182 78.9212 60.182C77.9412 60.182 77.1059 59.8273 76.4152 59.118C75.7246 58.3993 75.3792 57.5267 75.3792 56.5C75.3792 55.4733 75.7246 54.6053 76.4152 53.896C77.1059 53.1773 77.9412 52.818 78.9212 52.818C80.0786 52.818 80.9606 53.28 81.5672 54.204V53ZM79.0752 59.006C79.7846 59.006 80.3772 58.768 80.8532 58.292C81.3292 57.8067 81.5672 57.2093 81.5672 56.5C81.5672 55.7907 81.3292 55.198 80.8532 54.722C80.3772 54.2367 79.7846 53.994 79.0752 53.994C78.3752 53.994 77.7872 54.2367 77.3112 54.722C76.8352 55.198 76.5972 55.7907 76.5972 56.5C76.5972 57.2093 76.8352 57.8067 77.3112 58.292C77.7872 58.768 78.3752 59.006 79.0752 59.006ZM93.9266 50.2V60H92.6386V52.342L89.4326 57.676H89.2646L86.0586 52.356V60H84.7566V50.2H86.2266L89.3486 55.38L92.4566 50.2H93.9266ZM101.692 53H102.91V60H101.692V58.796C101.086 59.72 100.204 60.182 99.0462 60.182C98.0662 60.182 97.2309 59.8273 96.5402 59.118C95.8496 58.3993 95.5042 57.5267 95.5042 56.5C95.5042 55.4733 95.8496 54.6053 96.5402 53.896C97.2309 53.1773 98.0662 52.818 99.0462 52.818C100.204 52.818 101.086 53.28 101.692 54.204V53ZM99.2002 59.006C99.9096 59.006 100.502 58.768 100.978 58.292C101.454 57.8067 101.692 57.2093 101.692 56.5C101.692 55.7907 101.454 55.198 100.978 54.722C100.502 54.2367 99.9096 53.994 99.2002 53.994C98.5002 53.994 97.9122 54.2367 97.4362 54.722C96.9602 55.198 96.7222 55.7907 96.7222 56.5C96.7222 57.2093 96.9602 57.8067 97.4362 58.292C97.9122 58.768 98.5002 59.006 99.2002 59.006ZM105.792 54.89C105.792 55.1607 105.927 55.38 106.198 55.548C106.469 55.7067 106.795 55.8373 107.178 55.94C107.561 56.0333 107.943 56.1453 108.326 56.276C108.709 56.3973 109.035 56.612 109.306 56.92C109.577 57.2187 109.712 57.606 109.712 58.082C109.712 58.7167 109.465 59.2253 108.97 59.608C108.485 59.9907 107.859 60.182 107.094 60.182C106.413 60.182 105.829 60.0327 105.344 59.734C104.859 59.4353 104.513 59.0387 104.308 58.544L105.358 57.942C105.47 58.278 105.68 58.544 105.988 58.74C106.296 58.936 106.665 59.034 107.094 59.034C107.495 59.034 107.827 58.9593 108.088 58.81C108.349 58.6513 108.48 58.4087 108.48 58.082C108.48 57.8113 108.345 57.5967 108.074 57.438C107.803 57.27 107.477 57.1393 107.094 57.046C106.711 56.9433 106.329 56.8267 105.946 56.696C105.563 56.5653 105.237 56.3507 104.966 56.052C104.695 55.7533 104.56 55.3707 104.56 54.904C104.56 54.2973 104.793 53.798 105.26 53.406C105.736 53.014 106.329 52.818 107.038 52.818C107.607 52.818 108.111 52.9487 108.55 53.21C108.998 53.462 109.334 53.8167 109.558 54.274L108.536 54.848C108.284 54.2507 107.785 53.952 107.038 53.952C106.693 53.952 106.399 54.036 106.156 54.204C105.913 54.3627 105.792 54.5913 105.792 54.89ZM117.008 60H115.496L112.304 56.682V60H111.086V50.2H112.304V56.094L115.328 53H116.896L113.55 56.388L117.008 60Z" fill="#2B2B2B"/>
<path d="M56.4781 45.104C55.6301 45.104 54.9288 44.824 54.3741 44.264C53.8248 43.704 53.5501 43.016 53.5501 42.2C53.5501 41.384 53.8248 40.696 54.3741 40.136C54.9288 39.576 55.6301 39.296 56.4781 39.296C56.9901 39.296 57.4594 39.4187 57.8861 39.664C58.3181 39.9093 58.6541 40.24 58.8941 40.656L58.2461 41.032C58.0861 40.7227 57.8461 40.4773 57.5261 40.296C57.2114 40.1093 56.8621 40.016 56.4781 40.016C55.8328 40.016 55.3048 40.224 54.8941 40.64C54.4888 41.056 54.2861 41.576 54.2861 42.2C54.2861 42.8187 54.4888 43.336 54.8941 43.752C55.3048 44.168 55.8328 44.376 56.4781 44.376C56.8621 44.376 57.2114 44.2853 57.5261 44.104C57.8461 43.9173 58.0861 43.672 58.2461 43.368L58.8941 43.736C58.6594 44.152 58.3261 44.4853 57.8941 44.736C57.4621 44.9813 56.9901 45.104 56.4781 45.104ZM63.0251 44.496C62.6144 44.9013 62.1158 45.104 61.5291 45.104C60.9424 45.104 60.4438 44.9013 60.0331 44.496C59.6278 44.0907 59.4251 43.592 59.4251 43C59.4251 42.408 59.6278 41.9093 60.0331 41.504C60.4438 41.0987 60.9424 40.896 61.5291 40.896C62.1158 40.896 62.6144 41.0987 63.0251 41.504C63.4358 41.9093 63.6411 42.408 63.6411 43C63.6411 43.592 63.4358 44.0907 63.0251 44.496ZM61.5291 44.424C61.9291 44.424 62.2651 44.288 62.5371 44.016C62.8091 43.744 62.9451 43.4053 62.9451 43C62.9451 42.5947 62.8091 42.256 62.5371 41.984C62.2651 41.712 61.9291 41.576 61.5291 41.576C61.1344 41.576 60.8011 41.712 60.5291 41.984C60.2571 42.256 60.1211 42.5947 60.1211 43C60.1211 43.4053 60.2571 43.744 60.5291 44.016C60.8011 44.288 61.1344 44.424 61.5291 44.424ZM66.4536 40.896C66.9229 40.896 67.2989 41.0453 67.5816 41.344C67.8643 41.6373 68.0056 42.0373 68.0056 42.544V45H67.3096V42.584C67.3096 42.2587 67.2216 42.008 67.0456 41.832C66.8696 41.6507 66.6269 41.56 66.3176 41.56C65.9709 41.56 65.6909 41.6693 65.4776 41.888C65.2643 42.1013 65.1576 42.432 65.1576 42.88V45H64.4616V41H65.1576V41.576C65.4403 41.1227 65.8723 40.896 66.4536 40.896ZM70.9692 40.896C71.4386 40.896 71.8146 41.0453 72.0972 41.344C72.3799 41.6373 72.5212 42.0373 72.5212 42.544V45H71.8252V42.584C71.8252 42.2587 71.7372 42.008 71.5612 41.832C71.3852 41.6507 71.1426 41.56 70.8332 41.56C70.4866 41.56 70.2066 41.6693 69.9932 41.888C69.7799 42.1013 69.6732 42.432 69.6732 42.88V45H68.9772V41H69.6732V41.576C69.9559 41.1227 70.3879 40.896 70.9692 40.896ZM73.9808 43.32C74.0502 43.6773 74.2128 43.9547 74.4688 44.152C74.7302 44.3493 75.0502 44.448 75.4288 44.448C75.9568 44.448 76.3408 44.2533 76.5808 43.864L77.1728 44.2C76.7835 44.8027 76.1968 45.104 75.4128 45.104C74.7782 45.104 74.2608 44.9067 73.8608 44.512C73.4662 44.112 73.2688 43.608 73.2688 43C73.2688 42.3973 73.4635 41.896 73.8528 41.496C74.2422 41.096 74.7462 40.896 75.3648 40.896C75.9515 40.896 76.4288 41.104 76.7968 41.52C77.1702 41.9307 77.3568 42.4267 77.3568 43.008C77.3568 43.1093 77.3488 43.2133 77.3328 43.32H73.9808ZM75.3648 41.552C74.9915 41.552 74.6822 41.6587 74.4368 41.872C74.1915 42.08 74.0395 42.36 73.9808 42.712H76.6528C76.5942 42.3333 76.4448 42.0453 76.2048 41.848C75.9648 41.6507 75.6848 41.552 75.3648 41.552ZM80.0291 45.104C79.4264 45.104 78.9251 44.904 78.5251 44.504C78.1251 44.0987 77.9251 43.5973 77.9251 43C77.9251 42.4027 78.1251 41.904 78.5251 41.504C78.9251 41.0987 79.4264 40.896 80.0291 40.896C80.4238 40.896 80.7784 40.992 81.0931 41.184C81.4078 41.3707 81.6424 41.624 81.7971 41.944L81.2131 42.28C81.1118 42.0667 80.9544 41.896 80.7411 41.768C80.5331 41.64 80.2958 41.576 80.0291 41.576C79.6291 41.576 79.2931 41.712 79.0211 41.984C78.7544 42.256 78.6211 42.5947 78.6211 43C78.6211 43.4 78.7544 43.736 79.0211 44.008C79.2931 44.28 79.6291 44.416 80.0291 44.416C80.2958 44.416 80.5358 44.3547 80.7491 44.232C80.9624 44.104 81.1251 43.9333 81.2371 43.72L81.8291 44.064C81.6584 44.3787 81.4131 44.632 81.0931 44.824C80.7731 45.0107 80.4184 45.104 80.0291 45.104ZM84.6923 41.672H83.6283V43.84C83.6283 44.0373 83.6656 44.1787 83.7403 44.264C83.8203 44.344 83.9403 44.3867 84.1003 44.392C84.2603 44.392 84.4576 44.3867 84.6923 44.376V45C84.0843 45.08 83.6389 45.032 83.3563 44.856C83.0736 44.6747 82.9323 44.336 82.9323 43.84V41.672H82.1403V41H82.9323V40.088L83.6283 39.88V41H84.6923V41.672ZM85.8683 40.272C85.7349 40.272 85.6229 40.2267 85.5323 40.136C85.4416 40.0453 85.3963 39.936 85.3963 39.808C85.3963 39.68 85.4416 39.5707 85.5323 39.48C85.6229 39.384 85.7349 39.336 85.8683 39.336C85.9963 39.336 86.1056 39.384 86.1963 39.48C86.2869 39.5707 86.3323 39.68 86.3323 39.808C86.3323 39.936 86.2869 40.0453 86.1963 40.136C86.1056 40.2267 85.9963 40.272 85.8683 40.272ZM85.5163 45V41H86.2123V45H85.5163ZM89.2661 40.896C89.7354 40.896 90.1114 41.0453 90.3941 41.344C90.6768 41.6373 90.8181 42.0373 90.8181 42.544V45H90.1221V42.584C90.1221 42.2587 90.0341 42.008 89.8581 41.832C89.6821 41.6507 89.4394 41.56 89.1301 41.56C88.7834 41.56 88.5034 41.6693 88.2901 41.888C88.0768 42.1013 87.9701 42.432 87.9701 42.88V45H87.2741V41H87.9701V41.576C88.2528 41.1227 88.6848 40.896 89.2661 40.896ZM95.1097 41H95.7977V44.832C95.7977 45.424 95.5977 45.8827 95.1977 46.208C94.7977 46.5387 94.3177 46.704 93.7577 46.704C93.3097 46.704 92.9231 46.6187 92.5977 46.448C92.2724 46.2827 92.0271 46.0427 91.8617 45.728L92.4697 45.384C92.6884 45.832 93.1231 46.056 93.7737 46.056C94.1897 46.056 94.5151 45.9467 94.7497 45.728C94.9897 45.5093 95.1097 45.2107 95.1097 44.832V44.264C94.7577 44.7973 94.2564 45.064 93.6057 45.064C93.0351 45.064 92.5524 44.8613 92.1577 44.456C91.7631 44.0507 91.5657 43.5573 91.5657 42.976C91.5657 42.3947 91.7631 41.904 92.1577 41.504C92.5524 41.0987 93.0351 40.896 93.6057 40.896C94.2617 40.896 94.7631 41.16 95.1097 41.688V41ZM92.6697 43.992C92.9417 44.264 93.2804 44.4 93.6857 44.4C94.0911 44.4 94.4297 44.264 94.7017 43.992C94.9737 43.72 95.1097 43.3813 95.1097 42.976C95.1097 42.576 94.9737 42.24 94.7017 41.968C94.4297 41.696 94.0911 41.56 93.6857 41.56C93.2804 41.56 92.9417 41.696 92.6697 41.968C92.3977 42.24 92.2617 42.576 92.2617 42.976C92.2617 43.3813 92.3977 43.72 92.6697 43.992ZM103.564 41H104.292L103.052 45H102.34L101.404 42.04L100.468 45H99.7562L98.5162 41H99.2442L100.124 44.04L101.068 41H101.74L102.684 44.048L103.564 41ZM105.36 40.272C105.227 40.272 105.115 40.2267 105.024 40.136C104.934 40.0453 104.888 39.936 104.888 39.808C104.888 39.68 104.934 39.5707 105.024 39.48C105.115 39.384 105.227 39.336 105.36 39.336C105.488 39.336 105.598 39.384 105.688 39.48C105.779 39.5707 105.824 39.68 105.824 39.808C105.824 39.936 105.779 40.0453 105.688 40.136C105.598 40.2267 105.488 40.272 105.36 40.272ZM105.008 45V41H105.704V45H105.008ZM108.942 41.672H107.878V43.84C107.878 44.0373 107.916 44.1787 107.99 44.264C108.07 44.344 108.19 44.3867 108.35 44.392C108.51 44.392 108.708 44.3867 108.942 44.376V45C108.334 45.08 107.889 45.032 107.606 44.856C107.324 44.6747 107.182 44.336 107.182 43.84V41.672H106.39V41H107.182V40.088L107.878 39.88V41H108.942V41.672ZM111.758 40.896C112.228 40.896 112.604 41.0453 112.886 41.344C113.169 41.6373 113.31 42.0373 113.31 42.544V45H112.614V42.584C112.614 42.2587 112.526 42.008 112.35 41.832C112.174 41.6507 111.932 41.56 111.622 41.56C111.276 41.56 110.996 41.6693 110.782 41.888C110.569 42.1013 110.462 42.432 110.462 42.88V45H109.766V39.4H110.462V41.576C110.745 41.1227 111.177 40.896 111.758 40.896Z" fill="#7F7A94"/>
<path d="M84 0C93.3897 0 101 7.61183 101 17C101 26.3897 93.3897 34 84 34C74.6118 34 67 26.3889 67 17C67 7.61183 74.6118 0 84 0Z" fill="#2B2B2B"/>
<path d="M91.9436 7.79999L85.0624 13.5468L86.342 10.16L91.9436 7.79999Z" fill="#E17726" stroke="#E17726" stroke-width="0.214431" stroke-linecap="round" stroke-linejoin="round"/>
<path d="M76.0712 7.79999L82.8911 13.6005L81.6728 10.16L76.0712 7.79999Z" fill="#E27625" stroke="#E27625" stroke-width="0.214431" stroke-linecap="round" stroke-linejoin="round"/>
<path d="M89.466 21.1249L87.6351 24.2819L91.5555 25.5002L92.6786 21.1939L89.466 21.1249Z" fill="#E27625" stroke="#E27625" stroke-width="0.214431" stroke-linecap="round" stroke-linejoin="round"/>
<path d="M75.3429 21.1939L76.4592 25.5002L80.3728 24.2819L78.5487 21.1249L75.3429 21.1939Z" fill="#E27625" stroke="#E27625" stroke-width="0.214431" stroke-linecap="round" stroke-linejoin="round"/>
<path d="M80.1617 15.7919L79.0727 17.6462L82.9523 17.8455L82.823 13.1331L80.1617 15.7919Z" fill="#E27625" stroke="#E27625" stroke-width="0.214431" stroke-linecap="round" stroke-linejoin="round"/>
<path d="M87.8528 15.792L85.1507 13.0795L85.0622 17.8455L88.9418 17.6463L87.8528 15.792Z" fill="#E27625" stroke="#E27625" stroke-width="0.214431" stroke-linecap="round" stroke-linejoin="round"/>
<path d="M80.3728 24.2819L82.7209 23.0023L80.6995 21.2246L80.3728 24.2819Z" fill="#E27625" stroke="#E27625" stroke-width="0.214431" stroke-linecap="round" stroke-linejoin="round"/>
<path d="M85.2939 23.0023L87.6352 24.2819L87.3153 21.2246L85.2939 23.0023Z" fill="#E27625" stroke="#E27625" stroke-width="0.214431" stroke-linecap="round" stroke-linejoin="round"/>
<path d="M87.6352 24.282L85.2939 23.0024L85.4844 24.7188L85.464 25.4467L87.6352 24.282Z" fill="#D5BFB2" stroke="#D5BFB2" stroke-width="0.214431" stroke-linecap="round" stroke-linejoin="round"/>
<path d="M80.3728 24.282L82.5508 25.4467L82.5372 24.7188L82.7209 23.0024L80.3728 24.282Z" fill="#D5BFB2" stroke="#D5BFB2" stroke-width="0.214431" stroke-linecap="round" stroke-linejoin="round"/>
<path d="M82.5916 20.0906L80.645 19.4469L82.0199 18.7343L82.5916 20.0906Z" fill="#233447" stroke="#233447" stroke-width="0.214431" stroke-linecap="round" stroke-linejoin="round"/>
<path d="M85.423 20.0906L85.9948 18.7343L87.3765 19.4469L85.423 20.0906Z" fill="#233447" stroke="#233447" stroke-width="0.214431" stroke-linecap="round" stroke-linejoin="round"/>
<path d="M80.3728 24.2819L80.7132 21.1249L78.5487 21.1939L80.3728 24.2819Z" fill="#CC6228" stroke="#CC6228" stroke-width="0.214431" stroke-linecap="round" stroke-linejoin="round"/>
<path d="M87.3016 21.1249L87.6351 24.2819L89.466 21.1939L87.3016 21.1249Z" fill="#CC6228" stroke="#CC6228" stroke-width="0.214431" stroke-linecap="round" stroke-linejoin="round"/>
<path d="M88.9418 17.6462L85.0622 17.8454L85.4229 20.0906L85.9947 18.7343L87.3764 19.4469L88.9418 17.6462Z" fill="#CC6228" stroke="#CC6228" stroke-width="0.214431" stroke-linecap="round" stroke-linejoin="round"/>
<path d="M80.645 19.4469L82.0198 18.7343L82.5916 20.0906L82.9523 17.8454L79.0727 17.6462L80.645 19.4469Z" fill="#CC6228" stroke="#CC6228" stroke-width="0.214431" stroke-linecap="round" stroke-linejoin="round"/>
<path d="M79.0728 17.6462L80.6996 21.2246L80.6451 19.4469L79.0728 17.6462Z" fill="#E27525" stroke="#E27525" stroke-width="0.214431" stroke-linecap="round" stroke-linejoin="round"/>
<path d="M87.3766 19.4469L87.3153 21.2246L88.942 17.6462L87.3766 19.4469Z" fill="#E27525" stroke="#E27525" stroke-width="0.214431" stroke-linecap="round" stroke-linejoin="round"/>
<path d="M82.9525 17.8454L82.5917 20.0906L83.0477 22.7417L83.1498 19.2476L82.9525 17.8454Z" fill="#E27525" stroke="#E27525" stroke-width="0.214431" stroke-linecap="round" stroke-linejoin="round"/>
<path d="M85.0624 17.8454L84.8718 19.24L84.9671 22.7417L85.4231 20.0906L85.0624 17.8454Z" fill="#E27525" stroke="#E27525" stroke-width="0.214431" stroke-linecap="round" stroke-linejoin="round"/>
<path d="M85.4231 20.0906L84.9671 22.7418L85.2938 23.0023L87.3153 21.2246L87.3765 19.4469L85.4231 20.0906Z" fill="#F5841F" stroke="#F5841F" stroke-width="0.214431" stroke-linecap="round" stroke-linejoin="round"/>
<path d="M80.645 19.4469L80.6995 21.2246L82.7209 23.0023L83.0476 22.7418L82.5916 20.0906L80.645 19.4469Z" fill="#F5841F" stroke="#F5841F" stroke-width="0.214431" stroke-linecap="round" stroke-linejoin="round"/>
<path d="M85.4639 25.4467L85.4843 24.7187L85.3074 24.5501H82.7074L82.5372 24.7187L82.5508 25.4467L80.3728 24.2819L81.1351 24.9869L82.6801 26.1899H85.3278L86.8796 24.9869L87.6351 24.2819L85.4639 25.4467Z" fill="#C0AC9D" stroke="#C0AC9D" stroke-width="0.214431" stroke-linecap="round" stroke-linejoin="round"/>
<path d="M85.2937 23.0023L84.9669 22.7418H83.0475L82.7209 23.0023L82.5371 24.7187L82.7073 24.5501H85.3073L85.4843 24.7187L85.2937 23.0023Z" fill="#161616" stroke="#161616" stroke-width="0.214431" stroke-linecap="round" stroke-linejoin="round"/>
<path d="M92.2362 13.9223L92.8148 10.75L91.9436 7.79999L85.2939 13.3553L87.853 15.7919L91.4671 16.9796L92.2635 15.9299L91.9164 15.6463L92.4677 15.0794L92.0457 14.7115L92.597 14.2364L92.2362 13.9223Z" fill="#763E1A" stroke="#763E1A" stroke-width="0.214431" stroke-linecap="round" stroke-linejoin="round"/>
<path d="M75.2 10.75L75.7854 13.9223L75.411 14.2364L75.9691 14.7115L75.5471 15.0794L76.0984 15.6463L75.7513 15.9299L76.5477 16.9796L80.1618 15.7919L82.721 13.3553L76.0712 7.79999L75.2 10.75Z" fill="#763E1A" stroke="#763E1A" stroke-width="0.214431" stroke-linecap="round" stroke-linejoin="round"/>
<path d="M91.4672 16.9796L87.853 15.7919L88.942 17.6462L87.3153 21.2246L89.4661 21.1939H92.6787L91.4672 16.9796Z" fill="#F5841F" stroke="#F5841F" stroke-width="0.214431" stroke-linecap="round" stroke-linejoin="round"/>
<path d="M80.1618 15.7919L76.5476 16.9796L75.3429 21.1939H78.5487L80.6995 21.2246L79.0728 17.6462L80.1618 15.7919Z" fill="#F5841F" stroke="#F5841F" stroke-width="0.214431" stroke-linecap="round" stroke-linejoin="round"/>
<path d="M85.0624 17.8455L85.2938 13.3552L86.342 10.16H81.6729L82.721 13.3552L82.9524 17.8455L83.0409 19.2554L83.0477 22.7418H84.9671L84.9739 19.2554L85.0624 17.8455Z" fill="#F5841F" stroke="#F5841F" stroke-width="0.214431" stroke-linecap="round" stroke-linejoin="round"/>
</svg>
