<svg width="110" height="13" viewBox="0 0 110 13" fill="none" xmlns="http://www.w3.org/2000/svg">
<path fill-rule="evenodd" clip-rule="evenodd" d="M17.2986 12.0916H20.0992V8.61291H21.5749L23.346 12.0916H26.2904L24.1524 8.0652L24.3467 7.94954C24.5043 7.85486 24.6495 7.73949 24.7787 7.60627C24.9684 7.41935 25.1418 7.21543 25.297 6.99687C25.4917 6.71244 25.6412 6.39733 25.7398 6.06356C25.8647 5.66389 25.9266 5.24586 25.9234 4.82561C25.9466 3.80991 25.5617 2.83014 24.8615 2.1221C24.1536 1.39443 23.2549 1.03059 22.1654 1.03059H17.2986V12.0916ZM23.1232 4.8219C23.1308 5.1189 23.0185 5.40563 22.8136 5.61257C22.5996 5.82659 22.3111 5.94077 22.0145 5.92886H20.0992V3.72323H22.0145C22.3104 3.71116 22.5985 3.82377 22.8136 4.0356C23.0187 4.24061 23.1311 4.52612 23.1232 4.8219ZM29.7538 8.2197C29.7434 7.78582 29.8943 7.36449 30.175 7.04344C30.4155 6.73827 30.7748 6.56136 31.1541 6.56136C31.5334 6.56136 31.8927 6.73827 32.1333 7.04344C32.4139 7.36449 32.5648 7.78582 32.5544 8.2197C32.5648 8.65358 32.4139 9.0749 32.1333 9.39596C31.8927 9.70113 31.5334 9.87804 31.1541 9.87804C30.7748 9.87804 30.4155 9.70113 30.175 9.39596C29.8943 9.0749 29.7434 8.65358 29.7538 8.2197ZM35.1325 8.21958C35.1325 7.14475 34.7425 6.20499 33.9626 5.40029C32.4089 3.79076 29.8972 3.79076 28.3435 5.40029C27.5612 6.20507 27.17 7.14483 27.1701 8.21958C27.1701 9.29432 27.5613 10.2341 28.3435 11.0389C29.8972 12.6484 32.4089 12.6484 33.9626 11.0389C34.7429 10.2341 35.133 9.29432 35.133 8.21958H35.1325ZM36.1617 8.21933C36.1617 9.29416 36.5529 10.2339 37.3352 11.0386C38.0727 11.8243 39.0876 12.2607 40.143 12.2461C40.5212 12.247 40.8974 12.1885 41.2588 12.0726C41.5623 11.9818 41.8547 11.855 42.1303 11.6946C42.3507 11.5587 42.558 11.4013 42.7496 11.2244C42.882 11.1094 43.0049 10.983 43.1167 10.8464C43.1695 10.7717 43.2103 10.7139 43.239 10.6728L41.77 9.01381L41.6188 9.21433C41.4731 9.39796 41.2931 9.54887 41.0896 9.65792C40.8478 9.80298 40.5733 9.87881 40.2942 9.87769C39.8779 9.88869 39.4766 9.71644 39.1888 9.40332C38.8936 9.08708 38.7339 8.66002 38.746 8.21933C38.7339 7.77864 38.8936 7.35158 39.1888 7.03535C39.4765 6.72229 39.8778 6.55004 40.2939 6.56097C40.5808 6.56195 40.8616 6.64734 41.1038 6.80728C41.2864 6.9118 41.4537 7.04296 41.6006 7.19679C41.6608 7.2721 41.7173 7.35057 41.7698 7.43191L43.2384 5.77355L43.1233 5.61154C43.0124 5.46205 42.8843 5.32735 42.7417 5.2105C42.5475 5.04377 42.3431 4.89043 42.1297 4.75146C41.8553 4.57975 41.5599 4.44741 41.2515 4.35803C39.8612 3.93504 38.3598 4.33418 37.3349 5.39927C36.5527 6.20456 36.1616 7.14458 36.1617 8.21933ZM49.4302 7.67177L52.0796 4.34732H49.2067L47.0688 7.0393V1.03059H44.5635V12.0916H47.0688V10.117L47.7312 9.33024L49.4302 12.0916H52.1588L49.4302 7.67177ZM54.0678 0.714355L52.448 4.58652L53.9958 5.53527L56.134 1.97951L54.0678 0.714355ZM59.7407 4.34728H57.2356V12.0916H59.7407V8.21944C59.7407 7.75667 59.8511 7.39157 60.0719 7.12413C60.2811 6.86221 60.5942 6.71443 60.9214 6.72309C61.205 6.71446 61.4774 6.83908 61.663 7.06244C61.8549 7.28868 61.9509 7.5972 61.9509 7.98802V12.0916H64.4563V7.51029C64.4563 6.52294 64.2091 5.72332 63.7148 5.11141C63.2503 4.51377 62.5454 4.17455 61.8069 4.19334C61.4112 4.19409 61.0222 4.30032 60.6771 4.5019C60.3172 4.70761 60.0856 4.87089 59.9825 4.99173C59.8793 5.11257 59.7987 5.21401 59.7407 5.29604V4.34728ZM67.3284 0.714355L65.7086 4.58652L67.2564 5.53527L69.3946 1.97951L67.3284 0.714355ZM75.8023 12.0917C76.9014 12.0917 77.8025 11.7677 78.5057 11.1198C79.2088 10.4718 79.5603 9.71587 79.5601 8.85199C79.5636 8.4994 79.4961 8.14996 79.3621 7.82609C79.256 7.55492 79.1062 7.30452 78.9194 7.08558C78.7517 6.90172 78.5631 6.73982 78.3578 6.60348C78.216 6.50361 78.0681 6.41344 77.915 6.33354C77.8311 6.29495 77.7651 6.26539 77.7171 6.24487L77.8539 6.16773C77.9756 6.09676 78.0881 6.00992 78.1887 5.90932C78.3267 5.77638 78.4555 5.6333 78.5739 5.48118C78.7205 5.28321 78.8326 5.05996 78.905 4.82162C78.9969 4.54235 79.0431 4.24901 79.0418 3.95382C79.0418 3.16703 78.7178 2.4831 78.0699 1.90202C77.4219 1.32095 76.5676 1.03041 75.5069 1.03041H70.8636V12.0915H75.8023V12.0917ZM73.6642 9.72372V7.51037H75.5795C75.876 7.49845 76.1645 7.61264 76.3785 7.82666C76.7915 8.26613 76.7915 8.96841 76.3785 9.40788C76.1645 9.62189 75.876 9.73608 75.5795 9.72417H73.6642V9.72372ZM75.2125 3.40635C75.4691 3.39259 75.7203 3.48556 75.9109 3.66476C76.0868 3.84506 76.181 4.09458 76.1701 4.3513C76.181 4.60803 76.0868 4.85755 75.9109 5.03785C75.7203 5.21705 75.4691 5.31002 75.2125 5.29625H73.6642V3.40635H75.2125ZM83.5429 1.03059H81.0376V12.0916H83.5429V1.03059ZM87.5952 8.21951C87.5848 7.78558 87.7357 7.3642 88.0165 7.04314C88.257 6.73793 88.6163 6.56099 88.9956 6.56099C89.3749 6.56099 89.7342 6.73793 89.9748 7.04314C90.2555 7.36417 90.4063 7.78551 90.3959 8.2194C90.4063 8.65332 90.2555 9.07471 89.9748 9.39577C89.7342 9.70097 89.3749 9.87791 88.9956 9.87791C88.6163 9.87791 88.257 9.70097 88.0165 9.39577C87.7357 9.0747 87.5848 8.65333 87.5952 8.2194V8.21951ZM92.9742 8.21958C92.9742 7.14475 92.5842 6.20499 91.8042 5.40029C90.2506 3.79076 87.7389 3.79076 86.1852 5.40029C85.4028 6.20507 85.0116 7.14483 85.0116 8.21958C85.0116 9.29432 85.4028 10.2341 86.1852 11.0389C87.7389 12.6484 90.2506 12.6484 91.8042 11.0389C92.5841 10.234 92.9741 9.29421 92.9742 8.21947V8.21958ZM94.0033 8.21947C94.0033 9.2943 94.3945 10.2341 95.1768 11.0388C95.9143 11.8243 96.9291 12.2608 97.9845 12.2461C98.3627 12.247 98.7389 12.1885 99.1004 12.0726C99.4038 11.9818 99.6963 11.855 99.9719 11.6946C100.192 11.5588 100.4 11.4013 100.591 11.2244C100.724 11.1095 100.846 10.983 100.958 10.8464C101.011 10.7718 101.052 10.7139 101.081 10.6729L99.6116 9.01383L99.4604 9.21436C99.3147 9.39797 99.1346 9.54888 98.9312 9.65794C98.6893 9.80302 98.4148 9.87885 98.1356 9.87772C97.7195 9.88865 97.3183 9.7164 97.0306 9.40335C96.7354 9.08711 96.5757 8.66005 96.5878 8.21936C96.5757 7.77867 96.7354 7.35161 97.0306 7.03538C97.3183 6.72232 97.7195 6.55007 98.1356 6.561C98.4225 6.56197 98.7034 6.64737 98.9456 6.80731C99.1282 6.91178 99.2955 7.04295 99.4423 7.19682C99.5026 7.2721 99.5591 7.35058 99.6116 7.43194L101.08 5.77358L100.965 5.61157C100.854 5.46205 100.726 5.32735 100.583 5.21053C100.389 5.04377 100.185 4.89043 99.9715 4.75149C99.6971 4.57976 99.4016 4.44742 99.0931 4.35806C97.7028 3.93502 96.2015 4.33417 95.1766 5.39929C94.3943 6.20459 94.0032 7.14461 94.0033 8.21936V8.21947ZM107.272 7.67188L109.921 4.34743H107.049L104.91 7.0393V1.03059H102.405V12.0916H104.91V10.117L105.573 9.33024L107.272 12.0916H110L107.272 7.67188Z" fill="black"/>
<path fill-rule="evenodd" clip-rule="evenodd" d="M0 0.714844H10.6452V11.8036H0V0.714844Z" fill="#FF0000"/>
<path fill-rule="evenodd" clip-rule="evenodd" d="M6.77109 1.60156L2.21851 6.51547H5.05787L3.32658 10.9161L8.42821 4.97892H5.58885L6.77109 1.60156Z" fill="white"/>
</svg>
