<svg width="64" height="64" viewBox="0 0 64 64" fill="none" xmlns="http://www.w3.org/2000/svg">
<path d="M24.0002 26.6666L33.3685 33.6929C34.1008 34.2422 35.1327 34.1342 35.7355 33.4453L53.3335 13.3333" stroke="#269653" stroke-width="3" stroke-linecap="round"/>
<path d="M56 32C56 37.0146 54.4292 41.9033 51.5083 45.9795C48.5874 50.0556 44.4631 53.1144 39.7145 54.7263C34.966 56.3382 29.8319 56.4222 25.0332 54.9666C20.2345 53.5109 16.0122 50.5887 12.9595 46.6103C9.9068 42.6319 8.17692 37.7972 8.01285 32.7853C7.84878 27.7733 9.25874 22.8358 12.0447 18.6663C14.8307 14.4968 18.8528 11.3047 23.546 9.53826C28.2392 7.77185 33.3679 7.5199 38.2117 8.81778" stroke="#269653" stroke-width="3" stroke-linecap="round"/>
</svg>
