<svg width="48" height="48" viewBox="0 0 48 48" fill="none" xmlns="http://www.w3.org/2000/svg">
<path d="M24 0.5C36.9791 0.5 47.5 11.0209 47.5 24C47.5 36.979 36.9767 47.5 24 47.5C11.0233 47.5 0.5 36.9814 0.5 24C0.5 11.0186 11.0209 0.5 24 0.5Z" fill="#53AE94" stroke="white"/>
<path d="M26.9615 20.8031V17.2319H35.1263V11.7911H12.8951V17.2319H21.0599V20.7983C14.4239 21.1031 9.43433 22.4183 9.43433 23.9927C9.43433 25.5671 14.4263 26.8823 21.0599 27.1871V38.6231H26.9639V27.1871C33.5879 26.8823 38.5679 25.5671 38.5679 23.9951C38.5679 22.4231 33.5879 21.1079 26.9615 20.8031ZM26.9639 26.2175V26.2151C26.7983 26.2247 25.9415 26.2775 24.0359 26.2775C22.5119 26.2775 21.4415 26.2343 21.0623 26.2151V26.2199C15.1991 25.9607 10.8239 24.9383 10.8239 23.7167C10.8239 22.4951 15.2015 21.4751 21.0623 21.2159V25.2023C21.4463 25.2287 22.5455 25.2935 24.0599 25.2935C25.8815 25.2935 26.7959 25.2167 26.9639 25.2023V21.2159C32.8151 21.4775 37.1807 22.4975 37.1807 23.7167C37.1831 24.9335 32.8151 25.9559 26.9639 26.2175Z" fill="white"/>
</svg>
