<svg width="48" height="48" viewBox="0 0 48 48" fill="none" xmlns="http://www.w3.org/2000/svg">
<circle cx="24" cy="24" r="24" fill="#F6F5F8"/>
<path d="M4.09137 25.4053C4.83067 24.861 5.55335 24.3415 6.29265 23.7972C5.52013 23.2611 4.78083 22.7416 4 22.1973C4.64792 21.6613 5.27923 21.1417 5.91885 20.6222C6.01853 20.5397 6.1016 20.4572 6.20958 20.3913C6.42556 20.2511 6.3508 20.1604 6.19297 20.0284C5.52843 19.4924 4.88051 18.9398 4.19936 18.4203C3.93355 18.2224 4.02492 17.975 4.04153 17.7523C4.05815 17.5709 4.29073 17.6121 4.41534 17.5956C6.64153 17.3647 8.81789 17.4554 10.8696 18.4698C11.0441 18.5522 11.1022 18.5192 11.2102 18.3626C11.6754 17.7111 11.6837 16.9524 11.8083 16.2184C11.8997 15.6659 11.9911 15.1133 12.0492 14.5525C12.0741 14.3381 12.1738 14.2639 12.3482 14.1814C13.3617 13.7526 14.3585 13.3073 15.3719 12.8784C15.5629 12.796 15.7291 12.6888 15.8703 12.5321C16.5681 11.7734 17.2824 11.0312 17.9719 10.256C18.1879 10.0168 18.4038 9.97556 18.7029 10.0415C19.6498 10.2312 20.5968 10.4044 21.5438 10.5776C22.1335 10.6848 22.6901 10.4704 23.255 10.3879C23.9527 10.2889 24.6339 10.1487 25.3233 10.0168C25.5476 9.97556 25.7387 10.025 25.9214 10.1817C26.9597 11.0806 27.9649 12.0373 29.078 12.8372C30.4319 13.8103 31.5783 15.0061 32.8575 16.0535C33.3559 16.4658 33.9706 16.7049 34.5272 17.0183C35.0422 17.3152 35.5572 17.5956 36.0722 17.876C36.147 17.9172 36.2716 17.942 36.2799 17.9914C36.3879 18.5027 36.6869 18.2059 36.9029 18.1316C38.7636 17.4719 40.6741 17.3812 42.6096 17.5956C42.7259 17.6121 42.9585 17.5544 42.9668 17.7688C42.9668 17.9832 43.0665 18.2141 42.8173 18.4038C42.1527 18.9151 41.5131 19.4676 40.8569 19.9872C40.6409 20.1521 40.5744 20.2428 40.832 20.449C41.538 21.018 42.2192 21.62 42.9419 22.2385C42.1776 22.7746 41.4383 23.2941 40.6575 23.8384C41.3968 24.3827 42.1112 24.9023 42.8588 25.4465C42.0863 26.0568 41.347 26.6423 40.5827 27.2444C41.2722 27.8546 41.9617 28.4484 42.6345 29.0504C42.7591 29.1659 43.0083 29.2566 42.9419 29.438C42.892 29.5864 42.6511 29.4957 42.4933 29.504C40.5911 29.6194 38.722 29.4462 36.9195 28.7947C36.7367 28.7288 36.6703 28.7947 36.6121 28.9349C36.446 29.3143 36.4958 29.7184 36.4543 30.106C36.3962 30.7163 36.3712 31.3348 36.3546 31.9533C36.3463 32.1759 36.255 32.2914 36.0639 32.3903C35.1086 32.8934 34.1617 33.4294 33.1981 33.9243C32.8575 34.0974 32.5834 34.3283 32.3425 34.6087C31.7195 35.318 31.0716 36.0189 30.4486 36.7364C30.2741 36.9426 30.0914 37.0086 29.8422 36.9756C28.4882 36.7941 27.1342 36.6127 25.7885 36.4395C25.1406 36.3571 24.5425 36.6045 23.9112 36.6787C23.3962 36.7447 22.8812 36.8684 22.3661 36.9673C22.1252 37.0168 21.9342 36.9591 21.7348 36.7776C20.846 35.9282 19.9406 35.1035 19.0518 34.2706C18.9272 34.1552 18.7943 34.0727 18.6447 33.9985C17.6147 33.5119 16.593 33.0171 15.5712 32.5223C15.3553 32.4151 15.1227 32.3079 15.1227 32.0027C15.1227 31.9285 15.0479 31.8626 14.9981 31.7966C14.0511 30.5348 13.1042 29.2731 12.1655 28.0031C12.016 27.8051 11.9246 27.7557 11.692 27.9123C10.2716 28.8607 8.66006 29.2318 6.99042 29.405C6.08498 29.4957 5.17125 29.537 4.26581 29.4298C4.19105 29.4215 4.08307 29.4545 4.04153 29.372C3.99169 29.2566 4.09968 29.1988 4.16613 29.1411C4.82236 28.5556 5.4869 27.9701 6.15144 27.401C6.32588 27.2526 6.37572 27.1784 6.15144 27.0134C5.47029 26.5104 4.81406 25.9743 4.09137 25.4053ZM29.593 36.0272C29.7757 36.1097 29.9086 35.9777 30.0415 35.8293C30.6396 35.153 31.2543 34.4768 31.8524 33.7923C32.0351 33.5861 32.2428 33.413 32.492 33.281C33.3891 32.8109 34.278 32.3161 35.1751 31.8378C35.3661 31.7389 35.4575 31.6316 35.4575 31.4007C35.4575 30.9884 35.5157 30.5843 35.524 30.172C35.5489 29.4133 35.632 28.6793 36.0224 28.0031C36.2217 27.6484 36.3713 27.2608 36.5374 26.8897C36.8032 26.3042 37.2767 25.7187 37.2684 25.1414C37.2601 24.5641 36.745 23.9951 36.4792 23.4178C36.3131 23.0467 36.0639 22.7169 36.0058 22.2963C35.8645 21.183 35.6735 20.0779 35.5572 18.9646C35.524 18.6677 35.3911 18.5357 35.1585 18.412C33.6965 17.6286 32.193 16.8946 31.0217 15.6741C30.5732 15.2123 30.0498 14.8164 29.5847 14.3629C29.3438 14.1237 29.1029 14.0495 28.7789 14.1155C28.3636 14.2062 27.9399 14.2804 27.5163 14.3299C26.8102 14.4123 26.1208 14.6268 25.3898 14.5195C24.3681 14.3629 23.338 14.2474 22.3163 14.0907C22.1086 14.0577 21.984 14.099 21.8428 14.2309C21.0288 14.9731 20.1981 15.6988 19.384 16.4328C19.1099 16.6802 18.8109 16.8781 18.4537 17.0101C17.6064 17.3235 16.7757 17.6781 15.9201 17.9832C15.6377 18.0904 15.5546 18.2389 15.5629 18.5275C15.5712 19.4429 15.5546 20.3665 15.5546 21.2819C15.5546 21.4798 15.5131 21.653 15.4217 21.8345C14.9399 22.7993 14.4748 23.7724 13.993 24.7373C13.885 24.96 13.885 25.1249 14.0013 25.3476C14.5495 26.3454 15.0728 27.3433 15.6045 28.3494C15.6875 28.5061 15.7706 28.6628 15.7872 28.8442C15.8454 29.5122 15.9367 30.1802 15.9534 30.8482C15.97 31.4585 16.1361 31.9203 16.7923 32.0852C16.9252 32.1182 17.0332 32.2172 17.1661 32.2584C18.8026 32.8852 20.1981 33.8665 21.3527 35.1695C21.9674 35.8705 22.632 36.1921 23.5374 35.8375C23.6038 35.8128 23.6703 35.8045 23.7367 35.7963C24.501 35.7221 25.2236 35.4252 26.0211 35.5571C27.1923 35.755 28.3802 35.8705 29.593 36.0272ZM6.34249 28.4649C6.3508 28.4979 6.35911 28.5226 6.36741 28.5556C6.75783 28.5144 7.15655 28.4896 7.54697 28.4319C8.97572 28.2092 10.3463 27.8464 11.501 26.931C12.4396 26.1888 12.9463 25.2156 12.9962 23.9456C12.1406 24.3827 11.3265 24.7868 10.5291 25.2074C10.23 25.3641 9.98914 25.3228 9.83131 25.0342C9.67348 24.7373 9.83131 24.5476 10.1054 24.4157C10.4958 24.226 10.8863 24.0199 11.285 23.8219C11.4927 23.723 11.692 23.6075 11.692 23.3519C11.692 23.0962 11.5176 22.9643 11.2933 22.8818C11.2518 22.8653 11.2185 22.8488 11.1853 22.8241C10.9278 22.7004 10.7284 22.5107 10.853 22.2138C10.9859 21.8839 11.2601 21.8509 11.5757 21.9829C11.9994 22.1561 12.4313 22.321 12.8965 22.5024C12.6971 21.4798 12.2652 20.6222 11.4927 19.9789C9.823 18.5852 7.81278 18.4203 5.62812 18.3873C6.34249 18.9728 6.95719 19.4924 7.59681 19.9872C7.82939 20.1686 7.84601 20.2593 7.59681 20.449C6.89904 20.985 6.2262 21.5623 5.52843 22.1313C6.33419 22.6921 7.0901 23.2282 7.88754 23.7807C7.11502 24.3415 6.38403 24.8775 5.62812 25.4301C6.37572 26.0238 7.08179 26.5846 7.81278 27.1619C7.30607 27.6155 6.82428 28.036 6.34249 28.4649ZM41.3553 25.4795C40.6741 24.9847 40.0345 24.5147 39.3783 24.0611C39.1457 23.9044 39.0792 23.8054 39.37 23.624C39.9847 23.2282 40.5578 22.7828 41.1725 22.387C41.4383 22.2138 41.4134 22.1148 41.1808 21.9334C40.5994 21.4633 40.0677 20.952 39.4697 20.5067C39.1291 20.2511 39.2371 20.1356 39.4946 19.9294C40.0927 19.4594 40.6824 18.9646 41.2971 18.4615C40.1259 18.2801 37.6422 18.7089 36.7035 19.2202C36.554 19.3027 36.5208 19.3769 36.5457 19.5418C36.6537 20.2593 36.7534 20.9768 36.8447 21.6943C36.8613 21.8592 36.9029 21.9087 37.0773 21.9417C37.5259 22.0076 37.6422 22.3458 37.3597 22.7169C37.3099 22.7746 37.1936 22.8158 37.2601 22.9065C37.5923 23.4343 37.6339 24.1518 38.2901 24.4652C38.5974 24.6136 38.639 24.861 38.4728 25.1084C37.9246 25.9001 37.6588 26.832 37.2019 27.6649C37.0939 27.8629 37.1604 27.9453 37.3597 28.0031C37.7585 28.1103 38.1489 28.2422 38.5476 28.3329C39.2371 28.4814 39.9265 28.5886 40.7323 28.6133C40.2256 28.168 39.8019 27.7804 39.3617 27.4093C39.1872 27.2691 39.1789 27.1949 39.3617 27.0547C40.0179 26.5434 40.6575 26.0238 41.3553 25.4795ZM28.1061 13.266C27.2588 12.5403 26.4447 11.8641 25.6556 11.1714C25.4728 11.0064 25.2901 10.9569 25.0575 10.9982C24.5176 11.0971 23.9776 11.2126 23.4377 11.2868C22.8645 11.361 22.2997 11.6002 21.7265 11.526C20.7879 11.4023 19.8575 11.1961 18.9272 11.0147C18.7029 10.9734 18.545 10.9982 18.3789 11.1796C17.8141 11.8146 17.2326 12.4414 16.6428 13.0516C16.4684 13.233 16.5182 13.3238 16.6594 13.4805C17.2658 14.1732 17.8722 14.8659 18.4537 15.5834C18.6281 15.7978 18.7361 15.7896 18.9272 15.6081C19.7744 14.8412 20.6383 14.0907 21.4856 13.3238C21.6601 13.1588 21.8428 13.0929 22.0754 13.1341C22.7981 13.2413 23.5291 13.2908 24.2435 13.4392C25.5227 13.6949 26.777 13.6042 28.1061 13.266ZM13.9099 22.7581C14.616 21.5128 14.616 21.5128 14.6326 20.2263C14.6326 20.0861 14.616 19.9459 14.6409 19.814C14.8569 18.5522 14.4665 17.4966 13.5444 16.606C13.2869 16.3586 13.0958 16.0535 12.83 15.7236C12.6224 16.8781 12.6556 17.9997 11.9578 18.9316C11.8665 19.0553 11.9246 19.1295 12.016 19.2037C13.1125 20.1191 13.6856 21.3149 13.9099 22.7581ZM13.2952 14.7752C13.9099 15.5669 14.4914 16.3091 15.0728 17.0513C15.1559 17.1585 15.2224 17.2822 15.4051 17.2162C16.1444 16.9194 16.8837 16.6307 17.623 16.3421C17.7725 16.2844 17.7808 16.2266 17.6812 16.1112C17.0415 15.3772 16.4102 14.635 15.7789 13.8928C15.6792 13.7773 15.5879 13.7856 15.455 13.8433C14.7572 14.1484 14.0511 14.4536 13.2952 14.7752ZM13.3866 26.1723C13.1789 26.4609 12.9962 26.7083 12.8051 26.964C12.722 27.0712 12.6722 27.1536 12.7719 27.2856C13.4863 28.2257 14.1923 29.1741 14.9067 30.1225C14.8652 29.6689 14.9815 29.2071 14.7821 28.8112C14.3502 27.9288 13.8684 27.0712 13.3866 26.1723Z" fill="#0E0C0C"/>
<path d="M28.1062 13.2656C26.7771 13.6037 25.5228 13.6944 24.2353 13.4305C23.5209 13.2821 22.7899 13.2326 22.0672 13.1254C21.8263 13.0924 21.6519 13.1584 21.4774 13.3151C20.6301 14.082 19.7662 14.8242 18.919 15.5994C18.7196 15.7809 18.6199 15.7891 18.4455 15.5747C17.864 14.8655 17.2576 14.1645 16.6512 13.4718C16.5183 13.3151 16.4685 13.2244 16.6346 13.0429C17.2244 12.4327 17.8059 11.8059 18.3707 11.1709C18.5369 10.9895 18.6947 10.9647 18.919 11.006C19.8493 11.1874 20.7797 11.3936 21.7183 11.5173C22.2915 11.5915 22.8563 11.3606 23.4295 11.2781C23.9778 11.2039 24.5094 11.0884 25.0493 10.9895C25.2819 10.9483 25.4647 10.9977 25.6474 11.1627C26.4449 11.8636 27.2589 12.5399 28.1062 13.2656Z" fill="#D73C79"/>
<path d="M13.91 22.7577C13.6941 21.3145 13.1209 20.1187 12.0244 19.2033C11.933 19.1291 11.8749 19.0466 11.9663 18.9312C12.664 18.0075 12.6308 16.8777 12.8385 15.7231C13.1043 16.053 13.2953 16.3581 13.5529 16.6056C14.4666 17.4962 14.857 18.5518 14.6493 19.8136C14.6244 19.9455 14.641 20.0857 14.641 20.2259C14.6161 21.5124 14.6161 21.5124 13.91 22.7577Z" fill="#D73C79"/>
<path d="M13.2953 14.7747C14.0512 14.4449 14.7573 14.148 15.455 13.8346C15.5879 13.7769 15.6793 13.7686 15.779 13.8841C16.4103 14.6263 17.0416 15.3685 17.6812 16.1025C17.7809 16.2179 17.7726 16.2756 17.6231 16.3334C16.8838 16.622 16.1445 16.9107 15.4052 17.2075C15.2224 17.2818 15.156 17.1498 15.0729 17.0426C14.4915 16.3086 13.91 15.5664 13.2953 14.7747Z" fill="#D73C79"/>
<path d="M13.3867 26.1719C13.8685 27.079 14.3419 27.9367 14.7822 28.8108C14.9816 29.2067 14.8653 29.6685 14.9068 30.1221C14.1924 29.1737 13.4864 28.2253 12.772 27.2852C12.6723 27.1532 12.7221 27.0708 12.8052 26.9636C12.9963 26.7079 13.179 26.4523 13.3867 26.1719Z" fill="#D73C79"/>
<path d="M21.0456 25.5699C20.9542 26.2131 20.8462 26.8399 20.7798 27.4749C20.7466 27.7553 20.6801 27.912 20.3645 27.8625C20.2149 27.8378 20.0654 27.8625 19.9076 27.8625C19.0271 27.8625 19.0354 27.8625 18.9523 26.9966C18.8277 25.7761 18.6948 24.5473 18.5453 23.3268C18.4955 22.9557 18.5453 22.8072 18.9855 22.8237C19.8328 22.865 19.8245 22.8402 19.8661 23.6731C19.9076 24.3659 19.9824 25.0586 20.0903 25.7513C20.1817 24.9431 20.2897 24.1432 20.3562 23.335C20.3894 22.9639 20.4808 22.7577 20.9127 22.8237C21.1951 22.8732 21.5523 22.7495 21.76 22.8814C21.976 23.0134 21.8347 23.3927 21.8597 23.6566C21.9344 24.2916 21.9843 24.9349 22.0424 25.5946C22.2418 25.1988 22.1919 24.77 22.2584 24.3576C22.3248 23.9288 22.3747 23.4917 22.4162 23.0546C22.4328 22.8897 22.4661 22.8155 22.6571 22.8237C23.0143 22.8402 23.3715 22.8237 23.7453 22.8237C23.5542 24.4401 23.3632 26.0317 23.1804 27.6151C23.1638 27.7883 23.114 27.8543 22.9312 27.846C22.5325 27.8378 22.1338 27.8295 21.7268 27.846C21.5108 27.8543 21.4526 27.7635 21.4194 27.5656C21.3446 26.9966 21.2533 26.4276 21.1619 25.8668C21.1619 25.7761 21.1619 25.6606 21.0456 25.5699Z" fill="#0E0C0C"/>
<path d="M32.5419 25.3637C32.5419 26.0894 32.5336 26.8151 32.5502 27.5408C32.5585 27.78 32.5086 27.8707 32.2428 27.8707C31.2128 27.8707 31.2128 27.8872 31.2128 26.8646C31.2128 26.576 31.2045 26.2873 31.2128 25.9987C31.2211 25.842 31.1629 25.7843 31.0051 25.7843C30.839 25.7843 30.7974 25.8502 30.7974 25.9987C30.8058 26.5347 30.7891 27.0708 30.8058 27.5986C30.8058 27.7882 30.7642 27.8542 30.5566 27.8625C29.4933 27.9119 29.4933 27.9119 29.4933 26.8481C29.4933 25.6193 29.5016 24.3823 29.485 23.1535C29.485 22.9061 29.5431 22.8319 29.8006 22.8319C30.8473 22.8237 30.8473 22.8154 30.8473 23.8298C30.8473 24.0112 30.8473 24.1844 30.8473 24.3658C30.8473 24.5143 30.8058 24.671 31.055 24.6627C31.2875 24.6545 31.2377 24.506 31.2377 24.3823C31.2377 23.97 31.246 23.5576 31.2377 23.1535C31.2294 22.9309 31.2792 22.8484 31.5284 22.8402C32.5419 22.8237 32.5419 22.8072 32.5419 23.8133C32.5419 24.3246 32.5419 24.8441 32.5419 25.3637Z" fill="#0E0C0C"/>
<path d="M23.9609 25.3224C23.9609 24.6131 23.9775 23.8957 23.9526 23.1864C23.9443 22.8896 24.044 22.8236 24.3264 22.8318C24.8331 22.8566 25.3481 22.8566 25.8549 22.8318C26.1124 22.8236 26.212 22.8978 26.1705 23.1452C26.1622 23.2112 26.1622 23.2854 26.1705 23.3514C26.2453 23.739 26.1041 23.9122 25.697 23.8297C25.29 23.7472 25.2983 24.0111 25.3149 24.2833C25.3315 24.5389 25.2152 24.8605 25.697 24.7946C25.8382 24.7781 26.0791 24.6874 26.1207 24.8935C26.1705 25.1409 26.1622 25.4213 26.0958 25.6605C26.0542 25.8007 25.8216 25.7347 25.6804 25.7182C25.398 25.6935 25.2651 25.7842 25.3149 26.0728C25.3232 26.1141 25.3149 26.1553 25.3149 26.1965C25.3149 26.7903 25.3149 26.8068 25.913 26.7903C26.1871 26.782 26.2619 26.8563 26.2619 27.1284C26.2536 27.8046 26.2619 27.8046 25.5641 27.8046C25.1405 27.8046 24.7085 27.7882 24.2849 27.8129C24.0191 27.8294 23.9609 27.7304 23.9609 27.483C23.9692 26.7738 23.9609 26.0481 23.9609 25.3224Z" fill="#0E0C0C"/>
<path d="M27.126 25.8667C27.126 25.3059 27.1177 24.7451 27.1343 24.1843C27.1426 23.9287 27.0845 23.805 26.7937 23.8297C26.6442 23.8462 26.395 23.9287 26.3535 23.7555C26.2953 23.4833 26.3286 23.1865 26.3535 22.8978C26.3618 22.8153 26.4947 22.8483 26.5778 22.8483C27.3752 22.8483 28.1809 22.8566 28.9784 22.8401C29.1777 22.8401 29.2525 22.8978 29.2276 23.0957C29.211 23.2029 29.211 23.3184 29.2276 23.4256C29.2857 23.7637 29.1611 23.9122 28.8123 23.838C28.5132 23.7802 28.4551 23.9204 28.4551 24.2008C28.4717 25.3141 28.4551 26.4192 28.4634 27.5325C28.4634 27.7882 28.4052 27.8789 28.1311 27.8789C27.1177 27.8789 27.1177 27.8871 27.1177 26.8975C27.126 26.5511 27.126 26.2048 27.126 25.8667Z" fill="#0E0C0C"/>
<path d="M21.9507 16.4572C22.1916 16.4819 22.3992 16.5561 22.4408 16.82C22.4823 17.1169 22.3245 17.2736 22.042 17.3313C21.012 17.5622 20.065 17.9828 19.2261 18.6178C18.9104 18.857 18.5948 19.1044 18.3289 19.4095C18.1213 19.6569 17.8887 19.7641 17.6229 19.525C17.3571 19.2858 17.465 19.0302 17.6727 18.8075C18.6861 17.7189 19.9238 16.9849 21.3609 16.5891C21.5603 16.5314 21.7596 16.4984 21.9507 16.4572Z" fill="#0E0C0C"/>
</svg>
