<svg width="24" height="17" viewBox="0 0 24 17" fill="none" xmlns="http://www.w3.org/2000/svg">
<path d="M8.13674 8.23833L16.2987 0.107925C16.3684 0.0386317 16.4629 -0.000172575 16.5614 6.58111e-07H23.2394C23.4443 -0.000380456 23.6107 0.164815 23.6111 0.368919C23.6113 0.467315 23.572 0.561728 23.5021 0.631229L15.602 8.50002L23.5021 16.3688C23.6472 16.5129 23.6474 16.7469 23.5027 16.8914C23.433 16.9611 23.3382 17.0002 23.2394 17H16.5614C16.4629 17.0002 16.3684 16.9614 16.2987 16.8921L8.13674 8.76163C7.99167 8.6175 7.99139 8.3835 8.13608 8.23899C8.13632 8.23878 8.13653 8.23857 8.13674 8.23833Z" fill="#D4F5E9"/>
<path d="M15.9433 8.23833L7.53392 0.107925C7.46211 0.0386317 7.36474 -0.000172575 7.26329 6.58111e-07H0.382936C0.17183 -0.000380456 0.00039478 0.164815 5.93132e-07 0.368919C-0.000178583 0.467315 0.0402436 0.561728 0.112308 0.631229L8.25177 8.50002L0.112308 16.3688C-0.0371605 16.5129 -0.0374471 16.7469 0.111627 16.8914C0.183513 16.9611 0.281164 17.0002 0.382936 17H7.26329C7.36474 17.0002 7.46211 16.9614 7.53392 16.8921L15.9433 8.76163C16.0927 8.6175 16.093 8.3835 15.9439 8.23899C15.9437 8.23878 15.9435 8.23857 15.9433 8.23833Z" fill="#3DD598"/>
</svg>
